<?xml version="1.0" encoding="UTF-8" standalone="no"?>
<!DOCTYPE svg PUBLIC "-//W3C//DTD SVG 1.1//EN"
 "http://www.w3.org/Graphics/SVG/1.1/DTD/svg11.dtd">
<!-- Generated by graphviz version 2.50.0 (0)
 -->
<!-- Title: Tree Pages: 1 -->
<svg width="737pt" height="552pt"
 viewBox="0.00 0.00 737.00 552.00" xmlns="http://www.w3.org/2000/svg" xmlns:xlink="http://www.w3.org/1999/xlink">
<g id="graph0" class="graph" transform="scale(1 1) rotate(0) translate(4 548)">
<title>Tree</title>
<polygon fill="white" stroke="transparent" points="-4,4 -4,-548 733,-548 733,4 -4,4"/>
<!-- 0 -->
<g id="node1" class="node">
<title>0</title>
<path fill="#975bea" stroke="black" d="M345,-544C345,-544 210,-544 210,-544 204,-544 198,-538 198,-532 198,-532 198,-473 198,-473 198,-467 204,-461 210,-461 210,-461 345,-461 345,-461 351,-461 357,-467 357,-473 357,-473 357,-532 357,-532 357,-538 351,-544 345,-544"/>
<text text-anchor="start" x="206" y="-528.8" font-family="Helvetica,sans-Serif" font-size="14.00">petal length (cm) ≤ 4.45</text>
<text text-anchor="start" x="233.5" y="-513.8" font-family="Helvetica,sans-Serif" font-size="14.00">entropy = 0.79</text>
<text text-anchor="start" x="232.5" y="-498.8" font-family="Helvetica,sans-Serif" font-size="14.00">samples = 130</text>
<text text-anchor="start" x="215.5" y="-483.8" font-family="Helvetica,sans-Serif" font-size="14.00">value = [44, 41, 450]</text>
<text text-anchor="start" x="229" y="-468.8" font-family="Helvetica,sans-Serif" font-size="14.00">class = virginica</text>
</g>
<!-- 1 -->
<g id="node2" class="node">
<title>1</title>
<path fill="#f4cbae" stroke="black" d="M258,-425C258,-425 123,-425 123,-425 117,-425 111,-419 111,-413 111,-413 111,-354 111,-354 111,-348 117,-342 123,-342 123,-342 258,-342 258,-342 264,-342 270,-348 270,-354 270,-354 270,-413 270,-413 270,-419 264,-425 258,-425"/>
<text text-anchor="start" x="119" y="-409.8" font-family="Helvetica,sans-Serif" font-size="14.00">petal length (cm) ≤ 2.45</text>
<text text-anchor="start" x="143" y="-394.8" font-family="Helvetica,sans-Serif" font-size="14.00">entropy = 0.952</text>
<text text-anchor="start" x="149.5" y="-379.8" font-family="Helvetica,sans-Serif" font-size="14.00">samples = 70</text>
<text text-anchor="start" x="136" y="-364.8" font-family="Helvetica,sans-Serif" font-size="14.00">value = [44, 26, 0]</text>
<text text-anchor="start" x="147" y="-349.8" font-family="Helvetica,sans-Serif" font-size="14.00">class = setosa</text>
</g>
<!-- 0&#45;&gt;1 -->
<g id="edge1" class="edge">
<title>0&#45;&gt;1</title>
<path fill="none" stroke="black" d="M247.32,-460.91C240.64,-451.92 233.49,-442.32 226.6,-433.05"/>
<polygon fill="black" stroke="black" points="229.41,-430.96 220.63,-425.02 223.79,-435.13 229.41,-430.96"/>
<text text-anchor="middle" x="216.99" y="-446.05" font-family="Helvetica,sans-Serif" font-size="14.00">True</text>
</g>
<!-- 4 -->
<g id="node5" class="node">
<title>4</title>
<path fill="#8540e6" stroke="black" d="M430.5,-425C430.5,-425 300.5,-425 300.5,-425 294.5,-425 288.5,-419 288.5,-413 288.5,-413 288.5,-354 288.5,-354 288.5,-348 294.5,-342 300.5,-342 300.5,-342 430.5,-342 430.5,-342 436.5,-342 442.5,-348 442.5,-354 442.5,-354 442.5,-413 442.5,-413 442.5,-419 436.5,-425 430.5,-425"/>
<text text-anchor="start" x="296.5" y="-409.8" font-family="Helvetica,sans-Serif" font-size="14.00">petal width (cm) ≤ 1.75</text>
<text text-anchor="start" x="318" y="-394.8" font-family="Helvetica,sans-Serif" font-size="14.00">entropy = 0.206</text>
<text text-anchor="start" x="324.5" y="-379.8" font-family="Helvetica,sans-Serif" font-size="14.00">samples = 60</text>
<text text-anchor="start" x="307.5" y="-364.8" font-family="Helvetica,sans-Serif" font-size="14.00">value = [0, 15, 450]</text>
<text text-anchor="start" x="317" y="-349.8" font-family="Helvetica,sans-Serif" font-size="14.00">class = virginica</text>
</g>
<!-- 0&#45;&gt;4 -->
<g id="edge4" class="edge">
<title>0&#45;&gt;4</title>
<path fill="none" stroke="black" d="M308.03,-460.91C314.79,-451.92 322.02,-442.32 328.98,-433.05"/>
<polygon fill="black" stroke="black" points="331.81,-435.12 335.02,-425.02 326.21,-430.91 331.81,-435.12"/>
<text text-anchor="middle" x="338.52" y="-446.07" font-family="Helvetica,sans-Serif" font-size="14.00">False</text>
</g>
<!-- 2 -->
<g id="node3" class="node">
<title>2</title>
<path fill="#e58139" stroke="black" d="M105,-298.5C105,-298.5 12,-298.5 12,-298.5 6,-298.5 0,-292.5 0,-286.5 0,-286.5 0,-242.5 0,-242.5 0,-236.5 6,-230.5 12,-230.5 12,-230.5 105,-230.5 105,-230.5 111,-230.5 117,-236.5 117,-242.5 117,-242.5 117,-286.5 117,-286.5 117,-292.5 111,-298.5 105,-298.5"/>
<text text-anchor="start" x="18.5" y="-283.3" font-family="Helvetica,sans-Serif" font-size="14.00">entropy = 0.0</text>
<text text-anchor="start" x="17.5" y="-268.3" font-family="Helvetica,sans-Serif" font-size="14.00">samples = 44</text>
<text text-anchor="start" x="8" y="-253.3" font-family="Helvetica,sans-Serif" font-size="14.00">value = [44, 0, 0]</text>
<text text-anchor="start" x="15" y="-238.3" font-family="Helvetica,sans-Serif" font-size="14.00">class = setosa</text>
</g>
<!-- 1&#45;&gt;2 -->
<g id="edge2" class="edge">
<title>1&#45;&gt;2</title>
<path fill="none" stroke="black" d="M144.7,-341.91C131.38,-330.1 116.85,-317.22 103.57,-305.45"/>
<polygon fill="black" stroke="black" points="105.72,-302.68 95.92,-298.67 101.08,-307.92 105.72,-302.68"/>
</g>
<!-- 3 -->
<g id="node4" class="node">
<title>3</title>
<path fill="#39e581" stroke="black" d="M244,-298.5C244,-298.5 147,-298.5 147,-298.5 141,-298.5 135,-292.5 135,-286.5 135,-286.5 135,-242.5 135,-242.5 135,-236.5 141,-230.5 147,-230.5 147,-230.5 244,-230.5 244,-230.5 250,-230.5 256,-236.5 256,-242.5 256,-242.5 256,-286.5 256,-286.5 256,-292.5 250,-298.5 244,-298.5"/>
<text text-anchor="start" x="155.5" y="-283.3" font-family="Helvetica,sans-Serif" font-size="14.00">entropy = 0.0</text>
<text text-anchor="start" x="154.5" y="-268.3" font-family="Helvetica,sans-Serif" font-size="14.00">samples = 26</text>
<text text-anchor="start" x="145" y="-253.3" font-family="Helvetica,sans-Serif" font-size="14.00">value = [0, 26, 0]</text>
<text text-anchor="start" x="143" y="-238.3" font-family="Helvetica,sans-Serif" font-size="14.00">class = versicolor</text>
</g>
<!-- 1&#45;&gt;3 -->
<g id="edge3" class="edge">
<title>1&#45;&gt;3</title>
<path fill="none" stroke="black" d="M192.23,-341.91C192.69,-331.2 193.19,-319.62 193.65,-308.78"/>
<polygon fill="black" stroke="black" points="197.15,-308.81 194.08,-298.67 190.16,-308.51 197.15,-308.81"/>
</g>
<!-- 5 -->
<g id="node6" class="node">
<title>5</title>
<path fill="#a470ec" stroke="black" d="M429,-306C429,-306 294,-306 294,-306 288,-306 282,-300 282,-294 282,-294 282,-235 282,-235 282,-229 288,-223 294,-223 294,-223 429,-223 429,-223 435,-223 441,-229 441,-235 441,-235 441,-294 441,-294 441,-300 435,-306 429,-306"/>
<text text-anchor="start" x="290" y="-290.8" font-family="Helvetica,sans-Serif" font-size="14.00">petal length (cm) ≤ 4.95</text>
<text text-anchor="start" x="314" y="-275.8" font-family="Helvetica,sans-Serif" font-size="14.00">entropy = 0.758</text>
<text text-anchor="start" x="320.5" y="-260.8" font-family="Helvetica,sans-Serif" font-size="14.00">samples = 19</text>
<text text-anchor="start" x="307" y="-245.8" font-family="Helvetica,sans-Serif" font-size="14.00">value = [0, 14, 50]</text>
<text text-anchor="start" x="313" y="-230.8" font-family="Helvetica,sans-Serif" font-size="14.00">class = virginica</text>
</g>
<!-- 4&#45;&gt;5 -->
<g id="edge5" class="edge">
<title>4&#45;&gt;5</title>
<path fill="none" stroke="black" d="M364.11,-341.91C363.83,-333.56 363.52,-324.67 363.23,-316.02"/>
<polygon fill="black" stroke="black" points="366.73,-315.9 362.89,-306.02 359.73,-316.13 366.73,-315.9"/>
</g>
<!-- 10 -->
<g id="node11" class="node">
<title>10</title>
<path fill="#8139e5" stroke="black" d="M606,-306C606,-306 471,-306 471,-306 465,-306 459,-300 459,-294 459,-294 459,-235 459,-235 459,-229 465,-223 471,-223 471,-223 606,-223 606,-223 612,-223 618,-229 618,-235 618,-235 618,-294 618,-294 618,-300 612,-306 606,-306"/>
<text text-anchor="start" x="467" y="-290.8" font-family="Helvetica,sans-Serif" font-size="14.00">petal length (cm) ≤ 4.95</text>
<text text-anchor="start" x="491" y="-275.8" font-family="Helvetica,sans-Serif" font-size="14.00">entropy = 0.025</text>
<text text-anchor="start" x="497.5" y="-260.8" font-family="Helvetica,sans-Serif" font-size="14.00">samples = 41</text>
<text text-anchor="start" x="484" y="-245.8" font-family="Helvetica,sans-Serif" font-size="14.00">value = [0, 1, 400]</text>
<text text-anchor="start" x="490" y="-230.8" font-family="Helvetica,sans-Serif" font-size="14.00">class = virginica</text>
</g>
<!-- 4&#45;&gt;10 -->
<g id="edge10" class="edge">
<title>4&#45;&gt;10</title>
<path fill="none" stroke="black" d="M425.52,-341.91C439.88,-332.2 455.31,-321.76 470.02,-311.81"/>
<polygon fill="black" stroke="black" points="472.26,-314.52 478.58,-306.02 468.34,-308.72 472.26,-314.52"/>
</g>
<!-- 6 -->
<g id="node7" class="node">
<title>6</title>
<path fill="#defbea" stroke="black" d="M283,-187C283,-187 148,-187 148,-187 142,-187 136,-181 136,-175 136,-175 136,-116 136,-116 136,-110 142,-104 148,-104 148,-104 283,-104 283,-104 289,-104 295,-110 295,-116 295,-116 295,-175 295,-175 295,-181 289,-187 283,-187"/>
<text text-anchor="start" x="144" y="-171.8" font-family="Helvetica,sans-Serif" font-size="14.00">petal length (cm) ≤ 4.55</text>
<text text-anchor="start" x="168" y="-156.8" font-family="Helvetica,sans-Serif" font-size="14.00">entropy = 0.994</text>
<text text-anchor="start" x="174.5" y="-141.8" font-family="Helvetica,sans-Serif" font-size="14.00">samples = 13</text>
<text text-anchor="start" x="161" y="-126.8" font-family="Helvetica,sans-Serif" font-size="14.00">value = [0, 12, 10]</text>
<text text-anchor="start" x="163" y="-111.8" font-family="Helvetica,sans-Serif" font-size="14.00">class = versicolor</text>
</g>
<!-- 5&#45;&gt;6 -->
<g id="edge6" class="edge">
<title>5&#45;&gt;6</title>
<path fill="none" stroke="black" d="M310.85,-222.91C298.96,-213.38 286.19,-203.15 273.99,-193.37"/>
<polygon fill="black" stroke="black" points="276.06,-190.54 266.06,-187.02 271.68,-196.01 276.06,-190.54"/>
</g>
<!-- 9 -->
<g id="node10" class="node">
<title>9</title>
<path fill="#8743e6" stroke="black" d="M418,-179.5C418,-179.5 325,-179.5 325,-179.5 319,-179.5 313,-173.5 313,-167.5 313,-167.5 313,-123.5 313,-123.5 313,-117.5 319,-111.5 325,-111.5 325,-111.5 418,-111.5 418,-111.5 424,-111.5 430,-117.5 430,-123.5 430,-123.5 430,-167.5 430,-167.5 430,-173.5 424,-179.5 418,-179.5"/>
<text text-anchor="start" x="324" y="-164.3" font-family="Helvetica,sans-Serif" font-size="14.00">entropy = 0.276</text>
<text text-anchor="start" x="334" y="-149.3" font-family="Helvetica,sans-Serif" font-size="14.00">samples = 6</text>
<text text-anchor="start" x="321" y="-134.3" font-family="Helvetica,sans-Serif" font-size="14.00">value = [0, 2, 40]</text>
<text text-anchor="start" x="323" y="-119.3" font-family="Helvetica,sans-Serif" font-size="14.00">class = virginica</text>
</g>
<!-- 5&#45;&gt;9 -->
<g id="edge9" class="edge">
<title>5&#45;&gt;9</title>
<path fill="none" stroke="black" d="M364.97,-222.91C365.88,-212.2 366.87,-200.62 367.8,-189.78"/>
<polygon fill="black" stroke="black" points="371.3,-189.93 368.67,-179.67 364.33,-189.33 371.3,-189.93"/>
</g>
<!-- 7 -->
<g id="node8" class="node">
<title>7</title>
<path fill="#b388ef" stroke="black" d="M194,-68C194,-68 101,-68 101,-68 95,-68 89,-62 89,-56 89,-56 89,-12 89,-12 89,-6 95,0 101,0 101,0 194,0 194,0 200,0 206,-6 206,-12 206,-12 206,-56 206,-56 206,-62 200,-68 194,-68"/>
<text text-anchor="start" x="100" y="-52.8" font-family="Helvetica,sans-Serif" font-size="14.00">entropy = 0.863</text>
<text text-anchor="start" x="110" y="-37.8" font-family="Helvetica,sans-Serif" font-size="14.00">samples = 5</text>
<text text-anchor="start" x="97" y="-22.8" font-family="Helvetica,sans-Serif" font-size="14.00">value = [0, 4, 10]</text>
<text text-anchor="start" x="99" y="-7.8" font-family="Helvetica,sans-Serif" font-size="14.00">class = virginica</text>
</g>
<!-- 6&#45;&gt;7 -->
<g id="edge7" class="edge">
<title>6&#45;&gt;7</title>
<path fill="none" stroke="black" d="M190.18,-103.73C184.74,-94.97 178.99,-85.7 173.52,-76.91"/>
<polygon fill="black" stroke="black" points="176.43,-74.95 168.18,-68.3 170.48,-78.64 176.43,-74.95"/>
</g>
<!-- 8 -->
<g id="node9" class="node">
<title>8</title>
<path fill="#39e581" stroke="black" d="M333,-68C333,-68 236,-68 236,-68 230,-68 224,-62 224,-56 224,-56 224,-12 224,-12 224,-6 230,0 236,0 236,0 333,0 333,0 339,0 345,-6 345,-12 345,-12 345,-56 345,-56 345,-62 339,-68 333,-68"/>
<text text-anchor="start" x="244.5" y="-52.8" font-family="Helvetica,sans-Serif" font-size="14.00">entropy = 0.0</text>
<text text-anchor="start" x="247" y="-37.8" font-family="Helvetica,sans-Serif" font-size="14.00">samples = 8</text>
<text text-anchor="start" x="237.5" y="-22.8" font-family="Helvetica,sans-Serif" font-size="14.00">value = [0, 8, 0]</text>
<text text-anchor="start" x="232" y="-7.8" font-family="Helvetica,sans-Serif" font-size="14.00">class = versicolor</text>
</g>
<!-- 6&#45;&gt;8 -->
<g id="edge8" class="edge">
<title>6&#45;&gt;8</title>
<path fill="none" stroke="black" d="M241.19,-103.73C246.71,-94.97 252.55,-85.7 258.09,-76.91"/>
<polygon fill="black" stroke="black" points="261.15,-78.63 263.52,-68.3 255.22,-74.89 261.15,-78.63"/>
</g>
<!-- 11 -->
<g id="node12" class="node">
<title>11</title>
<path fill="#843de6" stroke="black" d="M574,-179.5C574,-179.5 481,-179.5 481,-179.5 475,-179.5 469,-173.5 469,-167.5 469,-167.5 469,-123.5 469,-123.5 469,-117.5 475,-111.5 481,-111.5 481,-111.5 574,-111.5 574,-111.5 580,-111.5 586,-117.5 586,-123.5 586,-123.5 586,-167.5 586,-167.5 586,-173.5 580,-179.5 574,-179.5"/>
<text text-anchor="start" x="480" y="-164.3" font-family="Helvetica,sans-Serif" font-size="14.00">entropy = 0.139</text>
<text text-anchor="start" x="490" y="-149.3" font-family="Helvetica,sans-Serif" font-size="14.00">samples = 6</text>
<text text-anchor="start" x="477" y="-134.3" font-family="Helvetica,sans-Serif" font-size="14.00">value = [0, 1, 50]</text>
<text text-anchor="start" x="479" y="-119.3" font-family="Helvetica,sans-Serif" font-size="14.00">class = virginica</text>
</g>
<!-- 10&#45;&gt;11 -->
<g id="edge11" class="edge">
<title>10&#45;&gt;11</title>
<path fill="none" stroke="black" d="M534.68,-222.91C533.68,-212.2 532.59,-200.62 531.57,-189.78"/>
<polygon fill="black" stroke="black" points="535.04,-189.3 530.62,-179.67 528.07,-189.95 535.04,-189.3"/>
</g>
<!-- 12 -->
<g id="node13" class="node">
<title>12</title>
<path fill="#8139e5" stroke="black" d="M717,-179.5C717,-179.5 616,-179.5 616,-179.5 610,-179.5 604,-173.5 604,-167.5 604,-167.5 604,-123.5 604,-123.5 604,-117.5 610,-111.5 616,-111.5 616,-111.5 717,-111.5 717,-111.5 723,-111.5 729,-117.5 729,-123.5 729,-123.5 729,-167.5 729,-167.5 729,-173.5 723,-179.5 717,-179.5"/>
<text text-anchor="start" x="626.5" y="-164.3" font-family="Helvetica,sans-Serif" font-size="14.00">entropy = 0.0</text>
<text text-anchor="start" x="625.5" y="-149.3" font-family="Helvetica,sans-Serif" font-size="14.00">samples = 35</text>
<text text-anchor="start" x="612" y="-134.3" font-family="Helvetica,sans-Serif" font-size="14.00">value = [0, 0, 350]</text>
<text text-anchor="start" x="618" y="-119.3" font-family="Helvetica,sans-Serif" font-size="14.00">class = virginica</text>
</g>
<!-- 10&#45;&gt;12 -->
<g id="edge12" class="edge">
<title>10&#45;&gt;12</title>
<path fill="none" stroke="black" d="M582.91,-222.91C595.83,-211.1 609.92,-198.22 622.79,-186.45"/>
<polygon fill="black" stroke="black" points="625.2,-189 630.21,-179.67 620.47,-183.83 625.2,-189"/>
</g>
</g>
</svg>
