<?xml version="1.0" encoding="UTF-8" standalone="no"?>
<!DOCTYPE svg PUBLIC "-//W3C//DTD SVG 1.1//EN"
 "http://www.w3.org/Graphics/SVG/1.1/DTD/svg11.dtd">
<!-- Generated by graphviz version 2.50.0 (0)
 -->
<!-- Title: Tree Pages: 1 -->
<svg width="606pt" height="671pt"
 viewBox="0.00 0.00 606.00 671.00" xmlns="http://www.w3.org/2000/svg" xmlns:xlink="http://www.w3.org/1999/xlink">
<g id="graph0" class="graph" transform="scale(1 1) rotate(0) translate(4 667)">
<title>Tree</title>
<polygon fill="white" stroke="transparent" points="-4,4 -4,-667 602,-667 602,4 -4,4"/>
<!-- 0 -->
<g id="node1" class="node">
<title>0</title>
<path fill="#fcfafe" stroke="black" d="M292,-663C292,-663 157,-663 157,-663 151,-663 145,-657 145,-651 145,-651 145,-592 145,-592 145,-586 151,-580 157,-580 157,-580 292,-580 292,-580 298,-580 304,-586 304,-592 304,-592 304,-651 304,-651 304,-657 298,-663 292,-663"/>
<text text-anchor="start" x="153" y="-647.8" font-family="Helvetica,sans-Serif" font-size="14.00">petal length (cm) ≤ 2.45</text>
<text text-anchor="start" x="189" y="-632.8" font-family="Helvetica,sans-Serif" font-size="14.00">gini = 0.666</text>
<text text-anchor="start" x="179.5" y="-617.8" font-family="Helvetica,sans-Serif" font-size="14.00">samples = 130</text>
<text text-anchor="start" x="166.5" y="-602.8" font-family="Helvetica,sans-Serif" font-size="14.00">value = [42, 43, 45]</text>
<text text-anchor="start" x="176" y="-587.8" font-family="Helvetica,sans-Serif" font-size="14.00">class = virginica</text>
</g>
<!-- 1 -->
<g id="node2" class="node">
<title>1</title>
<path fill="#e58139" stroke="black" d="M194,-536.5C194,-536.5 101,-536.5 101,-536.5 95,-536.5 89,-530.5 89,-524.5 89,-524.5 89,-480.5 89,-480.5 89,-474.5 95,-468.5 101,-468.5 101,-468.5 194,-468.5 194,-468.5 200,-468.5 206,-474.5 206,-480.5 206,-480.5 206,-524.5 206,-524.5 206,-530.5 200,-536.5 194,-536.5"/>
<text text-anchor="start" x="119.5" y="-521.3" font-family="Helvetica,sans-Serif" font-size="14.00">gini = 0.0</text>
<text text-anchor="start" x="106.5" y="-506.3" font-family="Helvetica,sans-Serif" font-size="14.00">samples = 42</text>
<text text-anchor="start" x="97" y="-491.3" font-family="Helvetica,sans-Serif" font-size="14.00">value = [42, 0, 0]</text>
<text text-anchor="start" x="104" y="-476.3" font-family="Helvetica,sans-Serif" font-size="14.00">class = setosa</text>
</g>
<!-- 0&#45;&gt;1 -->
<g id="edge1" class="edge">
<title>0&#45;&gt;1</title>
<path fill="none" stroke="black" d="M197.79,-579.91C190.38,-568.65 182.33,-556.42 174.88,-545.11"/>
<polygon fill="black" stroke="black" points="177.75,-543.1 169.33,-536.67 171.9,-546.94 177.75,-543.1"/>
<text text-anchor="middle" x="164.28" y="-557.45" font-family="Helvetica,sans-Serif" font-size="14.00">True</text>
</g>
<!-- 2 -->
<g id="node3" class="node">
<title>2</title>
<path fill="#f9f6fe" stroke="black" d="M366.5,-544C366.5,-544 236.5,-544 236.5,-544 230.5,-544 224.5,-538 224.5,-532 224.5,-532 224.5,-473 224.5,-473 224.5,-467 230.5,-461 236.5,-461 236.5,-461 366.5,-461 366.5,-461 372.5,-461 378.5,-467 378.5,-473 378.5,-473 378.5,-532 378.5,-532 378.5,-538 372.5,-544 366.5,-544"/>
<text text-anchor="start" x="232.5" y="-528.8" font-family="Helvetica,sans-Serif" font-size="14.00">petal width (cm) ≤ 1.75</text>
<text text-anchor="start" x="273.5" y="-513.8" font-family="Helvetica,sans-Serif" font-size="14.00">gini = 0.5</text>
<text text-anchor="start" x="260.5" y="-498.8" font-family="Helvetica,sans-Serif" font-size="14.00">samples = 88</text>
<text text-anchor="start" x="247" y="-483.8" font-family="Helvetica,sans-Serif" font-size="14.00">value = [0, 43, 45]</text>
<text text-anchor="start" x="253" y="-468.8" font-family="Helvetica,sans-Serif" font-size="14.00">class = virginica</text>
</g>
<!-- 0&#45;&gt;2 -->
<g id="edge2" class="edge">
<title>0&#45;&gt;2</title>
<path fill="none" stroke="black" d="M251.21,-579.91C257.01,-571.1 263.2,-561.7 269.18,-552.61"/>
<polygon fill="black" stroke="black" points="272.26,-554.3 274.83,-544.02 266.41,-550.45 272.26,-554.3"/>
<text text-anchor="middle" x="279.88" y="-564.81" font-family="Helvetica,sans-Serif" font-size="14.00">False</text>
</g>
<!-- 3 -->
<g id="node4" class="node">
<title>3</title>
<path fill="#4ce78d" stroke="black" d="M281,-425C281,-425 146,-425 146,-425 140,-425 134,-419 134,-413 134,-413 134,-354 134,-354 134,-348 140,-342 146,-342 146,-342 281,-342 281,-342 287,-342 293,-348 293,-354 293,-354 293,-413 293,-413 293,-419 287,-425 281,-425"/>
<text text-anchor="start" x="142" y="-409.8" font-family="Helvetica,sans-Serif" font-size="14.00">petal length (cm) ≤ 4.95</text>
<text text-anchor="start" x="178" y="-394.8" font-family="Helvetica,sans-Serif" font-size="14.00">gini = 0.159</text>
<text text-anchor="start" x="172.5" y="-379.8" font-family="Helvetica,sans-Serif" font-size="14.00">samples = 46</text>
<text text-anchor="start" x="163" y="-364.8" font-family="Helvetica,sans-Serif" font-size="14.00">value = [0, 42, 4]</text>
<text text-anchor="start" x="161" y="-349.8" font-family="Helvetica,sans-Serif" font-size="14.00">class = versicolor</text>
</g>
<!-- 2&#45;&gt;3 -->
<g id="edge3" class="edge">
<title>2&#45;&gt;3</title>
<path fill="none" stroke="black" d="M270.97,-460.91C264.21,-451.92 256.98,-442.32 250.02,-433.05"/>
<polygon fill="black" stroke="black" points="252.79,-430.91 243.98,-425.02 247.19,-435.12 252.79,-430.91"/>
</g>
<!-- 10 -->
<g id="node11" class="node">
<title>10</title>
<path fill="#843ee6" stroke="black" d="M458,-425C458,-425 323,-425 323,-425 317,-425 311,-419 311,-413 311,-413 311,-354 311,-354 311,-348 317,-342 323,-342 323,-342 458,-342 458,-342 464,-342 470,-348 470,-354 470,-354 470,-413 470,-413 470,-419 464,-425 458,-425"/>
<text text-anchor="start" x="319" y="-409.8" font-family="Helvetica,sans-Serif" font-size="14.00">petal length (cm) ≤ 4.85</text>
<text text-anchor="start" x="355" y="-394.8" font-family="Helvetica,sans-Serif" font-size="14.00">gini = 0.046</text>
<text text-anchor="start" x="349.5" y="-379.8" font-family="Helvetica,sans-Serif" font-size="14.00">samples = 42</text>
<text text-anchor="start" x="340" y="-364.8" font-family="Helvetica,sans-Serif" font-size="14.00">value = [0, 1, 41]</text>
<text text-anchor="start" x="342" y="-349.8" font-family="Helvetica,sans-Serif" font-size="14.00">class = virginica</text>
</g>
<!-- 2&#45;&gt;10 -->
<g id="edge10" class="edge">
<title>2&#45;&gt;10</title>
<path fill="none" stroke="black" d="M332.38,-460.91C339.21,-451.92 346.52,-442.32 353.57,-433.05"/>
<polygon fill="black" stroke="black" points="356.41,-435.1 359.68,-425.02 350.84,-430.86 356.41,-435.1"/>
</g>
<!-- 4 -->
<g id="node5" class="node">
<title>4</title>
<path fill="#39e581" stroke="black" d="M109,-298.5C109,-298.5 12,-298.5 12,-298.5 6,-298.5 0,-292.5 0,-286.5 0,-286.5 0,-242.5 0,-242.5 0,-236.5 6,-230.5 12,-230.5 12,-230.5 109,-230.5 109,-230.5 115,-230.5 121,-236.5 121,-242.5 121,-242.5 121,-286.5 121,-286.5 121,-292.5 115,-298.5 109,-298.5"/>
<text text-anchor="start" x="32.5" y="-283.3" font-family="Helvetica,sans-Serif" font-size="14.00">gini = 0.0</text>
<text text-anchor="start" x="19.5" y="-268.3" font-family="Helvetica,sans-Serif" font-size="14.00">samples = 40</text>
<text text-anchor="start" x="10" y="-253.3" font-family="Helvetica,sans-Serif" font-size="14.00">value = [0, 40, 0]</text>
<text text-anchor="start" x="8" y="-238.3" font-family="Helvetica,sans-Serif" font-size="14.00">class = versicolor</text>
</g>
<!-- 3&#45;&gt;4 -->
<g id="edge4" class="edge">
<title>3&#45;&gt;4</title>
<path fill="none" stroke="black" d="M160.42,-341.91C144.69,-329.88 127.5,-316.73 111.88,-304.79"/>
<polygon fill="black" stroke="black" points="113.94,-301.96 103.87,-298.67 109.69,-307.52 113.94,-301.96"/>
</g>
<!-- 5 -->
<g id="node6" class="node">
<title>5</title>
<path fill="#c09cf2" stroke="black" d="M281.5,-306C281.5,-306 151.5,-306 151.5,-306 145.5,-306 139.5,-300 139.5,-294 139.5,-294 139.5,-235 139.5,-235 139.5,-229 145.5,-223 151.5,-223 151.5,-223 281.5,-223 281.5,-223 287.5,-223 293.5,-229 293.5,-235 293.5,-235 293.5,-294 293.5,-294 293.5,-300 287.5,-306 281.5,-306"/>
<text text-anchor="start" x="147.5" y="-290.8" font-family="Helvetica,sans-Serif" font-size="14.00">petal width (cm) ≤ 1.55</text>
<text text-anchor="start" x="181" y="-275.8" font-family="Helvetica,sans-Serif" font-size="14.00">gini = 0.444</text>
<text text-anchor="start" x="179" y="-260.8" font-family="Helvetica,sans-Serif" font-size="14.00">samples = 6</text>
<text text-anchor="start" x="169.5" y="-245.8" font-family="Helvetica,sans-Serif" font-size="14.00">value = [0, 2, 4]</text>
<text text-anchor="start" x="168" y="-230.8" font-family="Helvetica,sans-Serif" font-size="14.00">class = virginica</text>
</g>
<!-- 3&#45;&gt;5 -->
<g id="edge5" class="edge">
<title>3&#45;&gt;5</title>
<path fill="none" stroke="black" d="M214.54,-341.91C214.75,-333.56 214.98,-324.67 215.2,-316.02"/>
<polygon fill="black" stroke="black" points="218.7,-316.11 215.46,-306.02 211.71,-315.93 218.7,-316.11"/>
</g>
<!-- 6 -->
<g id="node7" class="node">
<title>6</title>
<path fill="#8139e5" stroke="black" d="M109,-179.5C109,-179.5 20,-179.5 20,-179.5 14,-179.5 8,-173.5 8,-167.5 8,-167.5 8,-123.5 8,-123.5 8,-117.5 14,-111.5 20,-111.5 20,-111.5 109,-111.5 109,-111.5 115,-111.5 121,-117.5 121,-123.5 121,-123.5 121,-167.5 121,-167.5 121,-173.5 115,-179.5 109,-179.5"/>
<text text-anchor="start" x="36.5" y="-164.3" font-family="Helvetica,sans-Serif" font-size="14.00">gini = 0.0</text>
<text text-anchor="start" x="27" y="-149.3" font-family="Helvetica,sans-Serif" font-size="14.00">samples = 3</text>
<text text-anchor="start" x="17.5" y="-134.3" font-family="Helvetica,sans-Serif" font-size="14.00">value = [0, 0, 3]</text>
<text text-anchor="start" x="16" y="-119.3" font-family="Helvetica,sans-Serif" font-size="14.00">class = virginica</text>
</g>
<!-- 5&#45;&gt;6 -->
<g id="edge6" class="edge">
<title>5&#45;&gt;6</title>
<path fill="none" stroke="black" d="M163.76,-222.91C148.14,-210.88 131.06,-197.73 115.54,-185.79"/>
<polygon fill="black" stroke="black" points="117.65,-182.99 107.59,-179.67 113.38,-188.54 117.65,-182.99"/>
</g>
<!-- 7 -->
<g id="node8" class="node">
<title>7</title>
<path fill="#9cf2c0" stroke="black" d="M289.5,-187C289.5,-187 151.5,-187 151.5,-187 145.5,-187 139.5,-181 139.5,-175 139.5,-175 139.5,-116 139.5,-116 139.5,-110 145.5,-104 151.5,-104 151.5,-104 289.5,-104 289.5,-104 295.5,-104 301.5,-110 301.5,-116 301.5,-116 301.5,-175 301.5,-175 301.5,-181 295.5,-187 289.5,-187"/>
<text text-anchor="start" x="147.5" y="-171.8" font-family="Helvetica,sans-Serif" font-size="14.00">sepal length (cm) ≤ 6.95</text>
<text text-anchor="start" x="185" y="-156.8" font-family="Helvetica,sans-Serif" font-size="14.00">gini = 0.444</text>
<text text-anchor="start" x="183" y="-141.8" font-family="Helvetica,sans-Serif" font-size="14.00">samples = 3</text>
<text text-anchor="start" x="173.5" y="-126.8" font-family="Helvetica,sans-Serif" font-size="14.00">value = [0, 2, 1]</text>
<text text-anchor="start" x="168" y="-111.8" font-family="Helvetica,sans-Serif" font-size="14.00">class = versicolor</text>
</g>
<!-- 5&#45;&gt;7 -->
<g id="edge7" class="edge">
<title>5&#45;&gt;7</title>
<path fill="none" stroke="black" d="M217.89,-222.91C218.17,-214.56 218.48,-205.67 218.77,-197.02"/>
<polygon fill="black" stroke="black" points="222.27,-197.13 219.11,-187.02 215.27,-196.9 222.27,-197.13"/>
</g>
<!-- 8 -->
<g id="node9" class="node">
<title>8</title>
<path fill="#39e581" stroke="black" d="M202,-68C202,-68 105,-68 105,-68 99,-68 93,-62 93,-56 93,-56 93,-12 93,-12 93,-6 99,0 105,0 105,0 202,0 202,0 208,0 214,-6 214,-12 214,-12 214,-56 214,-56 214,-62 208,-68 202,-68"/>
<text text-anchor="start" x="125.5" y="-52.8" font-family="Helvetica,sans-Serif" font-size="14.00">gini = 0.0</text>
<text text-anchor="start" x="116" y="-37.8" font-family="Helvetica,sans-Serif" font-size="14.00">samples = 2</text>
<text text-anchor="start" x="106.5" y="-22.8" font-family="Helvetica,sans-Serif" font-size="14.00">value = [0, 2, 0]</text>
<text text-anchor="start" x="101" y="-7.8" font-family="Helvetica,sans-Serif" font-size="14.00">class = versicolor</text>
</g>
<!-- 7&#45;&gt;8 -->
<g id="edge8" class="edge">
<title>7&#45;&gt;8</title>
<path fill="none" stroke="black" d="M195.55,-103.73C190.19,-94.97 184.52,-85.7 179.14,-76.91"/>
<polygon fill="black" stroke="black" points="182.08,-75 173.88,-68.3 176.11,-78.66 182.08,-75"/>
</g>
<!-- 9 -->
<g id="node10" class="node">
<title>9</title>
<path fill="#8139e5" stroke="black" d="M333,-68C333,-68 244,-68 244,-68 238,-68 232,-62 232,-56 232,-56 232,-12 232,-12 232,-6 238,0 244,0 244,0 333,0 333,0 339,0 345,-6 345,-12 345,-12 345,-56 345,-56 345,-62 339,-68 333,-68"/>
<text text-anchor="start" x="260.5" y="-52.8" font-family="Helvetica,sans-Serif" font-size="14.00">gini = 0.0</text>
<text text-anchor="start" x="251" y="-37.8" font-family="Helvetica,sans-Serif" font-size="14.00">samples = 1</text>
<text text-anchor="start" x="241.5" y="-22.8" font-family="Helvetica,sans-Serif" font-size="14.00">value = [0, 0, 1]</text>
<text text-anchor="start" x="240" y="-7.8" font-family="Helvetica,sans-Serif" font-size="14.00">class = virginica</text>
</g>
<!-- 7&#45;&gt;9 -->
<g id="edge9" class="edge">
<title>7&#45;&gt;9</title>
<path fill="none" stroke="black" d="M245.82,-103.73C251.26,-94.97 257.01,-85.7 262.48,-76.91"/>
<polygon fill="black" stroke="black" points="265.52,-78.64 267.82,-68.3 259.57,-74.95 265.52,-78.64"/>
</g>
<!-- 11 -->
<g id="node12" class="node">
<title>11</title>
<path fill="#c09cf2" stroke="black" d="M451,-306C451,-306 326,-306 326,-306 320,-306 314,-300 314,-294 314,-294 314,-235 314,-235 314,-229 320,-223 326,-223 326,-223 451,-223 451,-223 457,-223 463,-229 463,-235 463,-235 463,-294 463,-294 463,-300 457,-306 451,-306"/>
<text text-anchor="start" x="322" y="-290.8" font-family="Helvetica,sans-Serif" font-size="14.00">sepal width (cm) ≤ 3.1</text>
<text text-anchor="start" x="353" y="-275.8" font-family="Helvetica,sans-Serif" font-size="14.00">gini = 0.444</text>
<text text-anchor="start" x="351" y="-260.8" font-family="Helvetica,sans-Serif" font-size="14.00">samples = 3</text>
<text text-anchor="start" x="341.5" y="-245.8" font-family="Helvetica,sans-Serif" font-size="14.00">value = [0, 1, 2]</text>
<text text-anchor="start" x="340" y="-230.8" font-family="Helvetica,sans-Serif" font-size="14.00">class = virginica</text>
</g>
<!-- 10&#45;&gt;11 -->
<g id="edge11" class="edge">
<title>10&#45;&gt;11</title>
<path fill="none" stroke="black" d="M389.81,-341.91C389.66,-333.56 389.51,-324.67 389.36,-316.02"/>
<polygon fill="black" stroke="black" points="392.86,-315.96 389.19,-306.02 385.86,-316.08 392.86,-315.96"/>
</g>
<!-- 14 -->
<g id="node15" class="node">
<title>14</title>
<path fill="#8139e5" stroke="black" d="M586,-298.5C586,-298.5 493,-298.5 493,-298.5 487,-298.5 481,-292.5 481,-286.5 481,-286.5 481,-242.5 481,-242.5 481,-236.5 487,-230.5 493,-230.5 493,-230.5 586,-230.5 586,-230.5 592,-230.5 598,-236.5 598,-242.5 598,-242.5 598,-286.5 598,-286.5 598,-292.5 592,-298.5 586,-298.5"/>
<text text-anchor="start" x="511.5" y="-283.3" font-family="Helvetica,sans-Serif" font-size="14.00">gini = 0.0</text>
<text text-anchor="start" x="498.5" y="-268.3" font-family="Helvetica,sans-Serif" font-size="14.00">samples = 39</text>
<text text-anchor="start" x="489" y="-253.3" font-family="Helvetica,sans-Serif" font-size="14.00">value = [0, 0, 39]</text>
<text text-anchor="start" x="491" y="-238.3" font-family="Helvetica,sans-Serif" font-size="14.00">class = virginica</text>
</g>
<!-- 10&#45;&gt;14 -->
<g id="edge14" class="edge">
<title>10&#45;&gt;14</title>
<path fill="none" stroke="black" d="M442.19,-341.91C457.37,-329.99 473.95,-316.98 489.04,-305.12"/>
<polygon fill="black" stroke="black" points="491.56,-307.6 497.26,-298.67 487.24,-302.09 491.56,-307.6"/>
</g>
<!-- 12 -->
<g id="node13" class="node">
<title>12</title>
<path fill="#8139e5" stroke="black" d="M431,-179.5C431,-179.5 342,-179.5 342,-179.5 336,-179.5 330,-173.5 330,-167.5 330,-167.5 330,-123.5 330,-123.5 330,-117.5 336,-111.5 342,-111.5 342,-111.5 431,-111.5 431,-111.5 437,-111.5 443,-117.5 443,-123.5 443,-123.5 443,-167.5 443,-167.5 443,-173.5 437,-179.5 431,-179.5"/>
<text text-anchor="start" x="358.5" y="-164.3" font-family="Helvetica,sans-Serif" font-size="14.00">gini = 0.0</text>
<text text-anchor="start" x="349" y="-149.3" font-family="Helvetica,sans-Serif" font-size="14.00">samples = 2</text>
<text text-anchor="start" x="339.5" y="-134.3" font-family="Helvetica,sans-Serif" font-size="14.00">value = [0, 0, 2]</text>
<text text-anchor="start" x="338" y="-119.3" font-family="Helvetica,sans-Serif" font-size="14.00">class = virginica</text>
</g>
<!-- 11&#45;&gt;12 -->
<g id="edge12" class="edge">
<title>11&#45;&gt;12</title>
<path fill="none" stroke="black" d="M387.81,-222.91C387.62,-212.2 387.43,-200.62 387.24,-189.78"/>
<polygon fill="black" stroke="black" points="390.74,-189.61 387.07,-179.67 383.74,-189.73 390.74,-189.61"/>
</g>
<!-- 13 -->
<g id="node14" class="node">
<title>13</title>
<path fill="#39e581" stroke="black" d="M570,-179.5C570,-179.5 473,-179.5 473,-179.5 467,-179.5 461,-173.5 461,-167.5 461,-167.5 461,-123.5 461,-123.5 461,-117.5 467,-111.5 473,-111.5 473,-111.5 570,-111.5 570,-111.5 576,-111.5 582,-117.5 582,-123.5 582,-123.5 582,-167.5 582,-167.5 582,-173.5 576,-179.5 570,-179.5"/>
<text text-anchor="start" x="493.5" y="-164.3" font-family="Helvetica,sans-Serif" font-size="14.00">gini = 0.0</text>
<text text-anchor="start" x="484" y="-149.3" font-family="Helvetica,sans-Serif" font-size="14.00">samples = 1</text>
<text text-anchor="start" x="474.5" y="-134.3" font-family="Helvetica,sans-Serif" font-size="14.00">value = [0, 1, 0]</text>
<text text-anchor="start" x="469" y="-119.3" font-family="Helvetica,sans-Serif" font-size="14.00">class = versicolor</text>
</g>
<!-- 11&#45;&gt;13 -->
<g id="edge13" class="edge">
<title>11&#45;&gt;13</title>
<path fill="none" stroke="black" d="M434.64,-222.91C448.07,-211.1 462.71,-198.22 476.09,-186.45"/>
<polygon fill="black" stroke="black" points="478.6,-188.9 483.8,-179.67 473.98,-183.64 478.6,-188.9"/>
</g>
</g>
</svg>
